<?xml version="1.0" encoding="UTF-8" standalone="no"?>
<svg width="65px" height="50px" viewBox="0 0 45 39" version="1.1" xmlns="http://www.w3.org/2000/svg" xmlns:xlink="http://www.w3.org/1999/xlink" xmlns:sketch="http://www.bohemiancoding.com/sketch/ns">
    <!-- Generator: Sketch Beta 3.3.1 (12005) - http://www.bohemiancoding.com/sketch -->
    <title>envelope-open</title>
    <desc>Created with Sketch Beta.</desc>
    <defs></defs>
    <g id="Page-1" stroke="none" stroke-width="1" fill="none" fill-rule="evenodd" sketch:type="MSPage">
        <g id="detail-thumbnail" sketch:type="MSArtboardGroup" transform="translate(-186.000000, -194.000000)" fill="#9e9e90">
            <g id="envelope-open" sketch:type="MSLayerGroup" transform="translate(190.000000, 199.000000)">
                <path d="M31.975,11.7144737 C31.967,11.6744726 31.951,11.6384717 31.938,11.5994706 C31.922,11.5494693 31.904,11.5014681 31.88,11.4554669 C31.863,11.421466 31.847,11.3884651 31.825,11.3554642 C31.792,11.2944626 31.768,11.2844624 31.752,11.2644618 C31.717,11.2234608 31.68,11.1864598 31.638,11.1514589 C31.618,11.1344584 27,7.76837002 27,7.76837002 L27,4.90629485 C27,3.80326588 26.103,2.78923925 25,2.78923925 L20.259,2.78923925 C20.23,2.78923925 16.587,0.183170807 16.587,0.183170807 C16.237,-0.0708358643 15.763,-0.0558354703 15.413,0.198171201 L11.946,2.66323594 C11.878,2.71223723 11.834,2.78923925 11.783,2.78923925 L7,2.78923925 C5.897,2.78923925 5,3.80326588 5,4.90629485 L5,7.76837002 L0.413,11.0964574 C0.319,11.1874598 0.283,11.2234608 0.247,11.2654619 C0.183,11.3284635 0.182,11.3444639 0.174,11.3564643 C0.152,11.3884651 0.137,11.421466 0.12,11.4564669 C0.096,11.5034681 0.079,11.5504694 0.062,11.6004707 C0.049,11.6394717 0.033,11.6754726 0.025,11.7144737 C0.017,11.7534747 0.018,11.7914757 0.015,11.8304767 C0.013,11.8574774 0,29.9069515 0,29.9069515 C0,31.0099804 0.897,31.7900009 2,32 L30,32 C31.103,31.7900009 32,31.0099804 32,29.9069515 L32,11.9064787 C31.982,11.7914757 31.983,11.7534747 31.975,11.7144737 Z M30,28.93 L19.669,21.518 L30,13.969 L30,28.93 L30,28.93 Z M2,13.969 L12.331,21.518 L2,28.93 L2,13.969 L2,13.969 Z M16,21.231 L28.06,29.883 L3.939,29.883 L16,21.231 L16,21.231 Z M29.301,12.003 L27,13.684 L27,10.333 L29.301,12.003 L29.301,12.003 Z M16,2.352 L16.893,3 L15.107,3 L16,2.352 L16,2.352 Z M7,5 L25,5 L25,15 C25,15.045 25.02,15.083 25.026,15.127 L17.959,20.291 L16.584,19.304 C16.236,19.054 15.766,19.054 15.418,19.304 L14.043,20.291 L6.976,15.127 C6.98,15.083 7,15.045 7,15 L7,4.883 L7,5 Z M5,13.684 L2.699,12.003 L5,10.333 L5,13.684 L5,13.684 Z" id="Shape" sketch:type="MSShapeGroup"></path>
                <path d="M25,7.883 L12,7.883 C11.724,7.883 11.5,7.659 11.5,7.383 C11.5,7.107 11.724,6.883 12,6.883 L25,6.883 C25.276,6.883 25.5,7.107 25.5,7.383 C25.5,7.659 25.276,7.883 25,7.883 L25,7.883 Z" id="Shape" opacity="0.5" sketch:type="MSShapeGroup"></path>
            </g>
        </g>
    </g>
</svg>