<?xml version="1.0" encoding="UTF-8" standalone="no"?>
<svg width="49px" height="35px" viewBox="0 0 32 32" version="1.1" xmlns="http://www.w3.org/2000/svg" xmlns:xlink="http://www.w3.org/1999/xlink" xmlns:sketch="http://www.bohemiancoding.com/sketch/ns">
    <!-- Generator: Sketch Beta 3.3.1 (12005) - http://www.bohemiancoding.com/sketch -->
    <title>envelope-closed</title>
    <desc>Created with Sketch Beta.</desc>
    <defs></defs>
    <g id="Page-1" stroke="none" stroke-width="1" fill="none" fill-rule="evenodd" sketch:type="MSPage">
        <g id="detail-thumbnail" sketch:type="MSArtboardGroup" transform="translate(-118.000000, -198.000000)" fill="#282828">
            <g id="envelope-closed" sketch:type="MSLayerGroup" transform="translate(118.000000, 198.000000)">
                <path d="M30,0 L2,0 C0.897,0 0,0.897 0,2 L0,15 L0,21 L0,22 C0,23.103 0.897,24 2,24 L30,24 C31.103,24 32,23.103 32,22 L32,21 L32,15 L32,2 C32,0.897 31.103,0 30,0 L30,0 Z M28.363,2 L15.999,13.5200005 L3.592,2 L28.363,2 L28.363,2 Z M30,22 L2,22 L2,21 L2,15 L2,3.252 L15.319,15.616 C15.511,15.794 15.756,15.883 16,15.883 C16.245,15.883 16.489,15.794 16.682,15.615 L30,3.208 L30,15 L30,21 L30,22 L30,22 Z" id="Shape" sketch:type="MSShapeGroup"></path>
                <path d="M13.711,12.549 C13.833,12.549 13.955,12.505 14.052,12.415 L25.1,2.124 C25.302,1.936 25.313,1.62 25.125,1.417 C24.937,1.216 24.62,1.204 24.418,1.392 L13.37,11.683 C13.168,11.871 13.157,12.187 13.345,12.39 C13.443,12.495 13.577,12.549 13.711,12.549 Z M30,19 L2,19 C1.724,19 1.5,19.224 1.5,19.5 C1.5,19.776 1.724,20 2,20 L30,20 C30.276,20 30.5,19.776 30.5,19.5 C30.5,19.224 30.276,19 30,19 Z" id="Shape" opacity="0.5" sketch:type="MSShapeGroup"></path>
            </g>
        </g>
    </g>
</svg>